<?xml version="1.0" encoding="UTF-8"?>
<svg xmlns="http://www.w3.org/2000/svg" width="1920.5" height="476.639" viewBox="0 0 1920.5 476.639" preserveAspectRatio="none">
  <g id="Gruppe_1129" data-name="Gruppe 1129" transform="translate(-2649.5 369.608)">
    <path id="Differenzmenge_27" data-name="Differenzmenge 27" d="M1750.262,476.639c-31.862,0-60.672-.815-88.076-2.493-28.2-1.726-59.121-2.928-94.532-3.675-31.669-.667-63.71-.915-94.7-1.155h-.055c-34.016-.264-69.191-.537-103.716-1.362-38.686-.925-72.39-2.462-103.036-4.7-41.87-3.055-85.072-4.54-132.076-4.54-19.313,0-38.973.246-60.1.752-18.858.453-38.448,1.1-59.888,1.991-39.954,1.65-80.65,3.9-120.007,6.074l-.15.008c-59.22,3.271-120.456,6.654-182.69,8.25-10.277.264-21.084.4-32.12.4-26.785,0-56.477-.787-90.773-2.4-30.551-1.442-61.871-3.4-92.16-5.288l-.115-.007-.392-.024-.276-.018h-.007c-30.252-1.889-61.533-3.842-92.345-5.294-34.507-1.624-64.419-2.413-91.447-2.413-28.076,0-53.477.823-77.653,2.517-19.1,1.338-38.424,1.988-59.075,1.988-21.631,0-42.6-.71-62.888-1.4h-.057l-.552-.018h-.044c-20.552-.7-41.8-1.414-64.573-1.414-11.865,0-23.071.192-34.261.588V7.541c50.623.173,101.89,1.553,151.468,2.887h.023l.14,0h.058c53.13,1.43,108.069,2.908,162.286,2.908,35.054,0,66.743-.607,96.88-1.855,31.025-1.285,65.039-2.18,103.984-2.735,34.657-.5,69.887-.68,103.958-.859h.5c37.348-.2,75.967-.4,113.847-1.013,42.51-.688,79.583-1.832,113.338-3.5C905.048,1.105,952.551,0,1004.209,0h.055c21.235,0,42.861.183,66.115.561,20.7.337,42.253.821,65.877,1.481,43.665,1.221,88.2,2.885,131.263,4.493h.014l.4.015h.021l.309.012c65.193,2.437,132.605,4.958,201.127,6.146,11.321.2,23.21.3,35.335.3,29.472,0,62.138-.586,99.863-1.791,33.746-1.078,68.186-2.534,101.492-3.941h.023l.4-.017.037,0h.015l.208-.009h.031c33.291-1.407,67.716-2.861,101.6-3.941,37.941-1.209,70.843-1.8,100.584-1.8,8.115,0,16.2.044,24.027.132V471.358c-11.76.44-23.427.9-34.71,1.353l-.171.007-.142.005-.133.007h-.05l-.054,0h-.014C1849.447,474.653,1799.526,476.639,1750.262,476.639Z" transform="translate(2637.001 -369.608)" fill="#74c2e2"></path>
    <path id="Schnittmenge_31" data-name="Schnittmenge 31" d="M1569.406,480.267h-.055c-15.318-.119-30.874-.239-46.5-.411,6.713-84.246.261-183.342-36.992-261.081-21.752-40.39-49.2-61.15-96.576-112.675-42.605-46.382-81.548-71.427-66.74-60.631-18.195-11.959-44.108-22.766-72.294-31.962,26.5.8,53.2,1.745,79.591,2.714,44.38,30.01,84.326,69.276,131.771,115.98,35.044,34.366,50.329,50.882,75.137,105.51,36.613,80.07,56.178,161.9,61.089,242.79Q1583.518,480.371,1569.406,480.267ZM1465.635,478.9c-19.237-.46-37.239-1.071-54.248-1.844-58.243-117.1-195.434-196.08-395.519-164.324,101.554,19.693,182.628,69.6,238.816,157.065q-11.923-.135-24.16-.135c-19.313,0-38.974.246-60.1.751-18.859.453-38.448,1.1-59.888,1.991-25.849,1.068-52.01,2.386-77.916,3.773-57.278-56.918-129.83-96.207-206.343-108.155-128.829-29.232-235.1,20.852-302.67,107.3q-12.073-.653-24.106-1.224-9.241-.435-18.053-.79c115.3-193.07,336.443-316.934,502.944-314.587,224.815,2.5,302.741,59.032,390.163,151.061,61.033,64.181,93.665,119.845,109.617,169.511Q1474.882,479.123,1465.635,478.9ZM694.4,19.03c11.2-.069,22.334-.128,33.347-.186h.5c21.916-.115,44.269-.233,66.654-.434-10.729,3.1-21.275,6.441-31.539,10.03C624.6,77.577,540.23,129.091,436.9,262.086c-50.15,64.55-87.849,131.85-108.412,212.251-13.981.945-28.1,1.523-42.791,1.748C359.982,262.885,516.165,99.333,694.4,19.03ZM108.947,406.78c15.3-67.956,41.863-136.079,76.991-211.061,34.009-72.307,58.62-123.345,102.209-173.6,22.746.594,45.74,1.149,68.788,1.55C325.55,49.46,298.542,76.453,271.657,113,188.74,238.856,153.576,329.738,158.121,324.894c-17.735,51.882-30.348,100.872-37.334,148.714-3.967.089-7.9.2-11.84.343Zm1615.13-114.324C1677.543,190.011,1605,97.654,1505.162,22.288q30.158.825,60.672,1.373c8.413.146,17.139.238,26.043.276,97.4,90.25,160.376,199.29,194.57,316.177a113.763,113.763,0,0,1-4.481,11.288c-1.562,3.119-3.527,4.486-5.792,4.487C1762.8,355.894,1738.847,308.261,1724.077,292.456ZM108.947,184.9c15.28-24.325,33.715-46.131,59.857-74.645,30.264-33,56.913-62.069,84.788-89.062l6.823.183h.023l.139,0h.011l.048,0q8.269.222,16.6.445c-86.75,72.441-136.79,146.6-168.285,215.512Z" transform="translate(2540.554 -380.56)" fill="#fff" opacity="0.09"></path>
  </g>
</svg>
