<?xml version="1.0" encoding="UTF-8"?>
<svg xmlns="http://www.w3.org/2000/svg" width="1922.004" height="1044.707" viewBox="0 0 1922.004 1044.707" preserveAspectRatio="none">
  <path id="Vereinigungsmenge_1" data-name="Vereinigungsmenge 1" d="M1510.326,1041.668c-31.055-2.109-65.1-3.577-104.066-4.487-34.725-.81-69.924-1.113-103.964-1.407h-.048l-.191,0h-.043l-.054,0h-.025c-37.319-.319-75.907-.65-114.153-1.661-42.579-1.13-79.682-3.005-113.43-5.733-46.076-3.728-93.59-5.539-145.256-5.539h-.132c-21.284,0-42.927.3-66.167.917-20.744.553-42.309,1.347-65.927,2.43-43.8,2.005-88.331,4.73-131.4,7.366l-.381.023-.021,0-.308.018-.316.02-.077.005-.1.006h-.01c-65.083,3.983-132.384,8.1-200.776,10.043-11.339.324-23.237.489-35.364.489-29.481,0-62.174-.96-99.943-2.935-33.66-1.761-67.963-4.137-101.136-6.434l-.3-.021-.132-.009h-.024l-.4-.027-.034-.005h-.017l-.275-.02-.1-.007c-33.26-2.3-67.653-4.682-101.534-6.451-37.949-1.982-70.876-2.945-100.662-2.945-8.051,0-15.974.07-23.548.207V473.557H0V21.27c4.6.076,8.758.113,12.7.113,8.2,0,15.261-.161,21.588-.493,26.038-1.347,55.318-4.739,83.632-8.017l.032,0,.081-.01.026,0h.008l.061-.007c28.472-3.293,57.914-6.7,84.12-8.053,11.7-.6,23.354-.893,35.628-.893,19.834,0,38.317.756,56.19,1.486l.037,0,.163.007.463.02h.02l.184.008.048,0c17.612.721,35.824,1.467,54.7,1.467,18,0,34.865-.687,51.559-2.1C422.363,3,444.529,2.134,469.008,2.134c23.53,0,49.636.832,79.812,2.547,27.068,1.546,54.325,3.608,80.684,5.6l.091.006h.023l.039,0,.246.018.84.065c26.066,1.968,53.019,4.006,79.744,5.532,29.916,1.712,55.844,2.543,79.268,2.543,9.781,0,19.211-.141,28.027-.421C872.32,16.336,925.7,12.765,977.329,9.31h.027l.049,0,.125-.008.04,0c34.24-2.289,69.645-4.655,104.52-6.4,39-1.949,73.257-2.9,104.714-2.9,41.055,0,78.757,1.569,115.262,4.8,26.748,2.362,56.162,3.985,89.923,4.962,29.839.863,60.115,1.15,89.393,1.428h.1l1.025.01h.254c26.966.254,54.849.516,82.432,1.219,30.907.792,57.892,2.063,82.5,3.884,23.943,1.77,49.083,2.632,76.858,2.632,42.971,0,86.528-2.1,128.651-4.123h.028l.091,0h.034l.072,0h.008c21.155-1.022,45.131-2.18,68.569-2.984V474.552h-1V1035.2c-50.446.3-101.563,2.548-151,4.726l-.032,0-.055,0h-.024l-.14,0h-.017c-53.146,2.345-108.1,4.771-162.451,4.771C1572.214,1044.707,1540.5,1043.714,1510.326,1041.668ZM1922,474.553Z" fill="#8246af"></path>
</svg>
