<?xml version="1.0" encoding="UTF-8"?>
<svg xmlns="http://www.w3.org/2000/svg" width="10.093" height="17.185" viewBox="0 0 10.093 17.185">
  <g id="Gruppe_538" data-name="Gruppe 538" transform="translate(-753.5 -230.121)">
    <path id="Linie_16" data-name="Linie 16" d="M7.093,8.593a1.5,1.5,0,0,1-1.061-.439L-1.061,1.061a1.5,1.5,0,0,1,0-2.121,1.5,1.5,0,0,1,2.121,0L8.153,6.032A1.5,1.5,0,0,1,7.093,8.593Z" transform="translate(755 231.621)" fill="#003087"></path>
    <path id="Linie_17" data-name="Linie 17" d="M0,8.593a1.5,1.5,0,0,1-1.061-.439,1.5,1.5,0,0,1,0-2.121L6.032-1.061a1.5,1.5,0,0,1,2.121,0,1.5,1.5,0,0,1,0,2.121L1.061,8.153A1.5,1.5,0,0,1,0,8.593Z" transform="translate(755 238.714)" fill="#003087"></path>
  </g>
</svg>
