<?xml version="1.0" encoding="UTF-8"?>
<svg xmlns="http://www.w3.org/2000/svg" width="22.575" height="22.575" viewBox="0 0 22.575 22.575">
  <path id="Icon_awesome-phone" data-name="Icon awesome-phone" d="M.819,1.084,5.4.026A1.065,1.065,0,0,1,6.617.639L8.733,5.577a1.055,1.055,0,0,1-.3,1.235L5.757,9a16.34,16.34,0,0,0,7.813,7.813l2.187-2.672a1.057,1.057,0,0,1,1.235-.3l4.938,2.116a1.071,1.071,0,0,1,.617,1.217l-1.058,4.585a1.058,1.058,0,0,1-1.032.82A20.456,20.456,0,0,1,0,2.116,1.057,1.057,0,0,1,.819,1.084Z" transform="translate(0.001 0.001)" fill="#fff"></path>
</svg>
