<?xml version="1.0" encoding="UTF-8"?>
<svg xmlns="http://www.w3.org/2000/svg" width="26.91" height="25.844" viewBox="0 0 26.91 25.844">
  <g id="Gruppe_1090" data-name="Gruppe 1090" transform="translate(-933 -3350.791)">
    <path id="Pfad_484" data-name="Pfad 484" d="M417.219,334.255h19.65a.956.956,0,0,1,.953.953v5.662a.956.956,0,0,1-.953.953h-19.65a.956.956,0,0,1-.953-.953v-5.662a.956.956,0,0,1,.953-.953" transform="translate(519.411 3020.908)" fill="#fff" fill-rule="evenodd"></path>
    <path id="Pfad_485" data-name="Pfad 485" d="M448.676,259.71h14.761a1.594,1.594,0,0,1,1.589,1.589v7.417a1.594,1.594,0,0,1-1.589,1.589H448.676a1.594,1.594,0,0,1-1.589-1.589V261.3a1.594,1.594,0,0,1,1.589-1.589" transform="translate(490.398 3091.081)" fill="#fff" fill-rule="evenodd"></path>
    <path id="Rechteck_1675" data-name="Rechteck 1675" d="M4.087,0h7.345a4.087,4.087,0,0,1,4.087,4.087v0a4.087,4.087,0,0,1-4.087,4.087H4.087A4.087,4.087,0,0,1,0,4.087v0A4.087,4.087,0,0,1,4.087,0Z" transform="translate(938.696 3352.001)" fill="#fff"></path>
    <path id="Pfad_486" data-name="Pfad 486" d="M448.545,436.516h15.025a1.462,1.462,0,0,1,1.458,1.458v12.558a1.462,1.462,0,0,1-1.458,1.458H448.545a1.462,1.462,0,0,1-1.458-1.458V437.974a1.462,1.462,0,0,1,1.458-1.458" transform="translate(490.398 2924.646)" fill="#fff" fill-rule="evenodd"></path>
    <path id="Pfad_487" data-name="Pfad 487" d="M371.975,386.818h24.219a1.349,1.349,0,0,1,1.345,1.345v9.194a1.349,1.349,0,0,1-1.345,1.345H371.975a1.349,1.349,0,0,1-1.345-1.345v-9.194a1.349,1.349,0,0,1,1.345-1.345" transform="translate(562.37 2971.429)" fill="#fff" fill-rule="evenodd"></path>
    <path id="Pfad_488" data-name="Pfad 488" d="M402.222,455.629h16.594a1.009,1.009,0,1,1,0,2.018H402.222a1.009,1.009,0,1,1,0-2.018" transform="translate(533.581 2906.654)" fill="#8246af" fill-rule="evenodd"></path>
    <path id="Pfad_489" data-name="Pfad 489" d="M741.159,445.117a1.626,1.626,0,1,1-1.626,1.626,1.626,1.626,0,0,1,1.626-1.626" transform="translate(215.107 2916.55)" fill="#8246af" fill-rule="evenodd"></path>
    <path id="Pfad_490" data-name="Pfad 490" d="M467.729,540.688v7.9a.251.251,0,0,0,.247.247H483a.251.251,0,0,0,.247-.247v-7.9Z" transform="translate(470.967 2826.585)" fill="#8246af" fill-rule="evenodd"></path>
    <path id="Pfad_491" data-name="Pfad 491" d="M488.7,579.585h12.093a.513.513,0,0,1,0,1.025H488.7a.513.513,0,0,1,0-1.025" transform="translate(451.713 2789.969)" fill="#8246af" fill-rule="evenodd"></path>
    <path id="Pfad_492" data-name="Pfad 492" d="M488.7,623.274h12.093a.513.513,0,0,1,0,1.025H488.7a.513.513,0,0,1,0-1.025" transform="translate(451.713 2748.843)" fill="#8246af" fill-rule="evenodd"></path>
  </g>
</svg>
