<?xml version="1.0" encoding="UTF-8"?>
<svg xmlns="http://www.w3.org/2000/svg" width="23.494" height="25.908" viewBox="0 0 23.494 25.908">
  <path id="Icon_simple-email" data-name="Icon simple-email" d="M25.148,11.958a13.361,13.361,0,0,1-.431,2.9A8.386,8.386,0,0,1,23.59,17.4a5.946,5.946,0,0,1-1.91,1.808,5.391,5.391,0,0,1-2.789.688,4.044,4.044,0,0,1-2.017-.494,3.454,3.454,0,0,1-1.363-1.4,4.321,4.321,0,0,1-3.656,1.836,3.717,3.717,0,0,1-3.191-1.716,5.618,5.618,0,0,1-.793-1.988,8.574,8.574,0,0,1-.1-2.594,12.048,12.048,0,0,1,.79-3.176,8.634,8.634,0,0,1,1.46-2.433,6.178,6.178,0,0,1,2.007-1.551,5.6,5.6,0,0,1,2.441-.542,7.591,7.591,0,0,1,1.46.125,5.977,5.977,0,0,1,1.133.34A6.128,6.128,0,0,1,18,6.8c.287.185.575.376.861.57l-.709,8.159a2.712,2.712,0,0,0,.021.955,1.336,1.336,0,0,0,.291.589,1.049,1.049,0,0,0,.473.308,1.755,1.755,0,0,0,1.661-.327,3.54,3.54,0,0,0,.89-1.133,7.3,7.3,0,0,0,.6-1.7,11.686,11.686,0,0,0,.262-2.121,13.554,13.554,0,0,0-.334-3.963,7.878,7.878,0,0,0-1.467-3.066,6.811,6.811,0,0,0-2.629-1.975,9.543,9.543,0,0,0-3.83-.7,8.457,8.457,0,0,0-3.788.826A8.692,8.692,0,0,0,7.422,5.508,10.986,10.986,0,0,0,5.537,8.951a15.518,15.518,0,0,0-.793,4.29,14.266,14.266,0,0,0,.4,4.378,7.906,7.906,0,0,0,1.6,3.138,6.675,6.675,0,0,0,2.71,1.884,10.4,10.4,0,0,0,3.74.625A12.809,12.809,0,0,0,15.652,23c.4-.081.788-.178,1.154-.285a8.687,8.687,0,0,0,.994-.356l.513,2.309a5.7,5.7,0,0,1-1.112.55,10.706,10.706,0,0,1-1.315.38,12.827,12.827,0,0,1-2.746.308A14.4,14.4,0,0,1,8.136,25.1a9.213,9.213,0,0,1-3.649-2.4A10.076,10.076,0,0,1,2.3,18.741a16.9,16.9,0,0,1-.612-5.5A16.772,16.772,0,0,1,2.736,7.964,13.062,13.062,0,0,1,5.272,3.771,11.553,11.553,0,0,1,9.139,1a12.109,12.109,0,0,1,5.009-1A12.642,12.642,0,0,1,19,.869a9.44,9.44,0,0,1,3.5,2.445,10.032,10.032,0,0,1,2.079,3.777A14.442,14.442,0,0,1,25.148,11.958Zm-13.9,1.587a5.507,5.507,0,0,0,.285,2.731,1.464,1.464,0,0,0,1.408.923,1.556,1.556,0,0,0,.482-.089,1.721,1.721,0,0,0,.555-.334,2.963,2.963,0,0,0,.563-.68,5.218,5.218,0,0,0,.518-1.149l.554-6.34a3.308,3.308,0,0,0-.861-.113,2.978,2.978,0,0,0-1.433.329,2.836,2.836,0,0,0-1.015.965,5.666,5.666,0,0,0-.673,1.587,13.459,13.459,0,0,0-.382,2.169Z" transform="translate(-1.67)" fill="#fff"></path>
</svg>
